<mxfile host="app.diagrams.net" modified="2021-12-20T03:34:48.396Z" agent="5.0 (Windows NT 10.0; Win64; x64) AppleWebKit/537.36 (KHTML, like Gecko) Chrome/96.0.4664.93 Safari/537.36 Edg/96.0.1054.53" etag="nxoY0mPmcDhjIGLMjmb5" version="15.9.6" type="github">
  <diagram id="UypYDCY0DTO_qoeUGzVr" name="Page-1">
    <mxGraphModel dx="327" dy="183" grid="1" gridSize="10" guides="1" tooltips="1" connect="1" arrows="1" fold="1" page="1" pageScale="1" pageWidth="2336" pageHeight="1654" math="0" shadow="0">
      <root>
        <mxCell id="0" />
        <mxCell id="1" parent="0" />
        <mxCell id="_x-VhurMgfSDuc2ts5zv-58" value="" style="rounded=0;whiteSpace=wrap;html=1;dashed=1;strokeColor=#C7C7C7;" vertex="1" parent="1">
          <mxGeometry x="19" y="1008" width="590" height="292" as="geometry" />
        </mxCell>
        <mxCell id="_x-VhurMgfSDuc2ts5zv-57" value="&lt;p style=&quot;margin: 0px ; margin-top: 4px ; margin-left: 10px ; text-align: left&quot;&gt;&lt;b&gt;redis cluster&lt;/b&gt;&lt;/p&gt;" style="html=1;shape=mxgraph.sysml.package;align=left;spacingLeft=5;verticalAlign=top;spacingTop=-3;labelX=135;html=1;overflow=fill;" vertex="1" parent="1">
          <mxGeometry x="321.3" y="1035.06" width="278.7" height="244.94" as="geometry" />
        </mxCell>
        <mxCell id="_x-VhurMgfSDuc2ts5zv-37" value="&lt;p style=&quot;margin: 0px ; margin-top: 4px ; margin-left: 10px ; text-align: left&quot;&gt;&lt;b&gt;redis sentinel&lt;/b&gt;&lt;/p&gt;" style="html=1;shape=mxgraph.sysml.package;align=left;spacingLeft=5;verticalAlign=top;spacingTop=-3;labelX=135;html=1;overflow=fill;" vertex="1" parent="1">
          <mxGeometry x="43.8" y="1036.13" width="256.2" height="243.87" as="geometry" />
        </mxCell>
        <mxCell id="_x-VhurMgfSDuc2ts5zv-23" value="" style="rounded=0;whiteSpace=wrap;html=1;dashed=1;strokeColor=#C7C7C7;" vertex="1" parent="1">
          <mxGeometry x="20" y="870" width="590" height="130" as="geometry" />
        </mxCell>
        <mxCell id="_x-VhurMgfSDuc2ts5zv-11" value="" style="rounded=0;whiteSpace=wrap;html=1;dashed=1;strokeColor=#C7C7C7;" vertex="1" parent="1">
          <mxGeometry x="20" y="770" width="590" height="90" as="geometry" />
        </mxCell>
        <mxCell id="SwYEhvY1zTtye4a5UMkW-8" style="edgeStyle=orthogonalEdgeStyle;rounded=0;orthogonalLoop=1;jettySize=auto;html=1;exitX=0.405;exitY=0.004;exitDx=0;exitDy=0;entryX=0;entryY=0.5;entryDx=0;entryDy=0;exitPerimeter=0;endSize=4;" parent="1" source="SwYEhvY1zTtye4a5UMkW-6" target="SwYEhvY1zTtye4a5UMkW-2" edge="1">
          <mxGeometry relative="1" as="geometry">
            <Array as="points">
              <mxPoint x="490" y="489" />
              <mxPoint x="448" y="489" />
              <mxPoint x="448" y="453" />
            </Array>
          </mxGeometry>
        </mxCell>
        <mxCell id="SwYEhvY1zTtye4a5UMkW-6" value="" style="rounded=0;whiteSpace=wrap;html=1;fillColor=#ffe6cc;strokeColor=#d79b00;" parent="1" vertex="1">
          <mxGeometry x="395" y="509" width="285" height="166" as="geometry" />
        </mxCell>
        <mxCell id="2Fcq3Pcda0Rbf09F9esO-19" style="rounded=0;orthogonalLoop=1;jettySize=auto;html=1;entryX=0;entryY=0.5;entryDx=0;entryDy=0;exitX=1;exitY=0.5;exitDx=0;exitDy=0;strokeColor=#787878;" parent="1" source="2Fcq3Pcda0Rbf09F9esO-18" target="2Fcq3Pcda0Rbf09F9esO-7" edge="1">
          <mxGeometry relative="1" as="geometry" />
        </mxCell>
        <mxCell id="2Fcq3Pcda0Rbf09F9esO-20" style="edgeStyle=none;rounded=0;orthogonalLoop=1;jettySize=auto;html=1;exitX=1;exitY=0.5;exitDx=0;exitDy=0;entryX=0;entryY=0.5;entryDx=0;entryDy=0;strokeColor=#787878;" parent="1" source="2Fcq3Pcda0Rbf09F9esO-18" target="2Fcq3Pcda0Rbf09F9esO-11" edge="1">
          <mxGeometry relative="1" as="geometry" />
        </mxCell>
        <mxCell id="2Fcq3Pcda0Rbf09F9esO-21" style="edgeStyle=none;rounded=0;orthogonalLoop=1;jettySize=auto;html=1;exitX=1;exitY=0.5;exitDx=0;exitDy=0;entryX=0;entryY=0.5;entryDx=0;entryDy=0;strokeColor=#787878;" parent="1" source="2Fcq3Pcda0Rbf09F9esO-18" target="2Fcq3Pcda0Rbf09F9esO-15" edge="1">
          <mxGeometry relative="1" as="geometry" />
        </mxCell>
        <mxCell id="2Fcq3Pcda0Rbf09F9esO-18" value="" style="rounded=0;whiteSpace=wrap;html=1;dashed=1;strokeColor=#ADADAD;fillColor=none;gradientColor=none;" parent="1" vertex="1">
          <mxGeometry x="40" y="61" width="100" height="269" as="geometry" />
        </mxCell>
        <mxCell id="2Fcq3Pcda0Rbf09F9esO-1" value="master" style="sketch=0;aspect=fixed;html=1;points=[];align=center;image;fontSize=12;image=img/lib/mscae/Cache_Redis_Product.svg;" parent="1" vertex="1">
          <mxGeometry x="240" y="70" width="50" height="42" as="geometry" />
        </mxCell>
        <mxCell id="2Fcq3Pcda0Rbf09F9esO-2" value="" style="aspect=fixed;html=1;points=[];align=center;image;fontSize=12;image=img/lib/azure2/security/Azure_Sentinel.svg;" parent="1" vertex="1">
          <mxGeometry x="60" y="70" width="56.00000000000001" height="68" as="geometry" />
        </mxCell>
        <mxCell id="2Fcq3Pcda0Rbf09F9esO-3" value="" style="aspect=fixed;html=1;points=[];align=center;image;fontSize=12;image=img/lib/azure2/security/Azure_Sentinel.svg;" parent="1" vertex="1">
          <mxGeometry x="60" y="160" width="56.00000000000001" height="68" as="geometry" />
        </mxCell>
        <mxCell id="2Fcq3Pcda0Rbf09F9esO-4" value="" style="aspect=fixed;html=1;points=[];align=center;image;fontSize=12;image=img/lib/azure2/security/Azure_Sentinel.svg;" parent="1" vertex="1">
          <mxGeometry x="60" y="253.5" width="56.00000000000001" height="68" as="geometry" />
        </mxCell>
        <mxCell id="2Fcq3Pcda0Rbf09F9esO-5" value="slave" style="sketch=0;aspect=fixed;html=1;points=[];align=center;image;fontSize=12;image=img/lib/mscae/Cache_Redis_Product.svg;" parent="1" vertex="1">
          <mxGeometry x="360" y="70" width="50" height="42" as="geometry" />
        </mxCell>
        <mxCell id="2Fcq3Pcda0Rbf09F9esO-6" value="slave" style="sketch=0;aspect=fixed;html=1;points=[];align=center;image;fontSize=12;image=img/lib/mscae/Cache_Redis_Product.svg;" parent="1" vertex="1">
          <mxGeometry x="300" y="70" width="50" height="42" as="geometry" />
        </mxCell>
        <mxCell id="2Fcq3Pcda0Rbf09F9esO-7" value="实例1" style="rounded=1;whiteSpace=wrap;html=1;" parent="1" vertex="1">
          <mxGeometry x="190" y="81" width="40" height="20" as="geometry" />
        </mxCell>
        <mxCell id="2Fcq3Pcda0Rbf09F9esO-8" value="" style="sketch=0;aspect=fixed;html=1;points=[];align=center;image;fontSize=12;image=img/lib/mscae/Cache_Redis_Product.svg;" parent="1" vertex="1">
          <mxGeometry x="240" y="138" width="50" height="42" as="geometry" />
        </mxCell>
        <mxCell id="2Fcq3Pcda0Rbf09F9esO-9" value="" style="sketch=0;aspect=fixed;html=1;points=[];align=center;image;fontSize=12;image=img/lib/mscae/Cache_Redis_Product.svg;" parent="1" vertex="1">
          <mxGeometry x="360" y="138" width="50" height="42" as="geometry" />
        </mxCell>
        <mxCell id="2Fcq3Pcda0Rbf09F9esO-10" value="" style="sketch=0;aspect=fixed;html=1;points=[];align=center;image;fontSize=12;image=img/lib/mscae/Cache_Redis_Product.svg;" parent="1" vertex="1">
          <mxGeometry x="300" y="138" width="50" height="42" as="geometry" />
        </mxCell>
        <mxCell id="2Fcq3Pcda0Rbf09F9esO-11" value="实例2" style="rounded=1;whiteSpace=wrap;html=1;" parent="1" vertex="1">
          <mxGeometry x="190" y="149" width="40" height="20" as="geometry" />
        </mxCell>
        <mxCell id="2Fcq3Pcda0Rbf09F9esO-12" value="" style="sketch=0;aspect=fixed;html=1;points=[];align=center;image;fontSize=12;image=img/lib/mscae/Cache_Redis_Product.svg;" parent="1" vertex="1">
          <mxGeometry x="240" y="270" width="50" height="42" as="geometry" />
        </mxCell>
        <mxCell id="2Fcq3Pcda0Rbf09F9esO-13" value="" style="sketch=0;aspect=fixed;html=1;points=[];align=center;image;fontSize=12;image=img/lib/mscae/Cache_Redis_Product.svg;" parent="1" vertex="1">
          <mxGeometry x="360" y="270" width="50" height="42" as="geometry" />
        </mxCell>
        <mxCell id="2Fcq3Pcda0Rbf09F9esO-14" value="" style="sketch=0;aspect=fixed;html=1;points=[];align=center;image;fontSize=12;image=img/lib/mscae/Cache_Redis_Product.svg;" parent="1" vertex="1">
          <mxGeometry x="300" y="270" width="50" height="42" as="geometry" />
        </mxCell>
        <mxCell id="2Fcq3Pcda0Rbf09F9esO-15" value="实例N" style="rounded=1;whiteSpace=wrap;html=1;" parent="1" vertex="1">
          <mxGeometry x="190" y="281" width="40" height="20" as="geometry" />
        </mxCell>
        <mxCell id="2Fcq3Pcda0Rbf09F9esO-16" value="&lt;h1&gt;&lt;b style=&quot;line-height: 2.2&quot;&gt;...&lt;/b&gt;&lt;/h1&gt;" style="text;html=1;resizable=0;autosize=1;align=center;verticalAlign=middle;points=[];fillColor=none;strokeColor=none;rounded=0;" parent="1" vertex="1">
          <mxGeometry x="295" y="173" width="40" height="90" as="geometry" />
        </mxCell>
        <mxCell id="2Fcq3Pcda0Rbf09F9esO-17" value="哨兵" style="rounded=1;whiteSpace=wrap;html=1;" parent="1" vertex="1">
          <mxGeometry x="68" y="30" width="40" height="20" as="geometry" />
        </mxCell>
        <mxCell id="2Fcq3Pcda0Rbf09F9esO-63" style="edgeStyle=none;rounded=0;orthogonalLoop=1;jettySize=auto;html=1;exitX=0.5;exitY=1;exitDx=0;exitDy=0;entryX=0.565;entryY=-0.006;entryDx=0;entryDy=0;entryPerimeter=0;fontSize=8;strokeColor=#787878;" parent="1" source="2Fcq3Pcda0Rbf09F9esO-25" target="2Fcq3Pcda0Rbf09F9esO-26" edge="1">
          <mxGeometry relative="1" as="geometry" />
        </mxCell>
        <mxCell id="2Fcq3Pcda0Rbf09F9esO-64" style="edgeStyle=none;rounded=0;orthogonalLoop=1;jettySize=auto;html=1;exitX=0.5;exitY=1;exitDx=0;exitDy=0;entryX=0.517;entryY=0.006;entryDx=0;entryDy=0;entryPerimeter=0;fontSize=8;strokeColor=#787878;" parent="1" source="2Fcq3Pcda0Rbf09F9esO-25" target="2Fcq3Pcda0Rbf09F9esO-56" edge="1">
          <mxGeometry relative="1" as="geometry" />
        </mxCell>
        <mxCell id="2Fcq3Pcda0Rbf09F9esO-65" style="edgeStyle=none;rounded=0;orthogonalLoop=1;jettySize=auto;html=1;exitX=0.5;exitY=1;exitDx=0;exitDy=0;entryX=0.517;entryY=-0.006;entryDx=0;entryDy=0;entryPerimeter=0;fontSize=8;strokeColor=#787878;" parent="1" source="2Fcq3Pcda0Rbf09F9esO-25" target="2Fcq3Pcda0Rbf09F9esO-59" edge="1">
          <mxGeometry relative="1" as="geometry" />
        </mxCell>
        <mxCell id="2Fcq3Pcda0Rbf09F9esO-25" value="" style="rounded=0;whiteSpace=wrap;html=1;dashed=1;strokeColor=#ADADAD;fillColor=none;gradientColor=none;" parent="1" vertex="1">
          <mxGeometry x="730" y="50" width="170" height="71.5" as="geometry" />
        </mxCell>
        <mxCell id="2Fcq3Pcda0Rbf09F9esO-26" value="master" style="sketch=0;aspect=fixed;html=1;points=[];align=center;image;fontSize=12;image=img/lib/mscae/Cache_Redis_Product.svg;" parent="1" vertex="1">
          <mxGeometry x="710" y="159.5" width="50" height="42" as="geometry" />
        </mxCell>
        <mxCell id="2Fcq3Pcda0Rbf09F9esO-31" value="slave" style="sketch=0;aspect=fixed;html=1;points=[];align=center;image;fontSize=12;image=img/lib/mscae/Cache_Redis_Product.svg;" parent="1" vertex="1">
          <mxGeometry x="710" y="227.5" width="50" height="42" as="geometry" />
        </mxCell>
        <mxCell id="2Fcq3Pcda0Rbf09F9esO-32" value="实例1" style="rounded=1;whiteSpace=wrap;html=1;" parent="1" vertex="1">
          <mxGeometry x="670" y="64.75" width="40" height="20" as="geometry" />
        </mxCell>
        <mxCell id="2Fcq3Pcda0Rbf09F9esO-42" value="Proxy" style="rounded=1;whiteSpace=wrap;html=1;" parent="1" vertex="1">
          <mxGeometry x="670" y="89.25" width="40" height="20" as="geometry" />
        </mxCell>
        <mxCell id="2Fcq3Pcda0Rbf09F9esO-44" value="" style="shadow=0;dashed=0;html=1;labelPosition=center;verticalLabelPosition=bottom;verticalAlign=top;align=center;outlineConnect=0;shape=mxgraph.veeam.3d.proxy;strokeColor=#ADADAD;fillColor=none;gradientColor=none;" parent="1" vertex="1">
          <mxGeometry x="752" y="61.5" width="46" height="46" as="geometry" />
        </mxCell>
        <mxCell id="2Fcq3Pcda0Rbf09F9esO-46" value="" style="shadow=0;dashed=0;html=1;labelPosition=center;verticalLabelPosition=bottom;verticalAlign=top;align=center;outlineConnect=0;shape=mxgraph.veeam.3d.proxy;strokeColor=#ADADAD;fillColor=none;gradientColor=none;" parent="1" vertex="1">
          <mxGeometry x="830" y="61.5" width="46" height="46" as="geometry" />
        </mxCell>
        <mxCell id="2Fcq3Pcda0Rbf09F9esO-55" value="分片1" style="rounded=1;fontSize=11;fillColor=none;strokeColor=none;html=1;" parent="1" vertex="1">
          <mxGeometry x="700" y="291.5" width="70" height="30" as="geometry" />
        </mxCell>
        <mxCell id="2Fcq3Pcda0Rbf09F9esO-56" value="master" style="sketch=0;aspect=fixed;html=1;points=[];align=center;image;fontSize=12;image=img/lib/mscae/Cache_Redis_Product.svg;" parent="1" vertex="1">
          <mxGeometry x="790" y="159.5" width="50" height="42" as="geometry" />
        </mxCell>
        <mxCell id="2Fcq3Pcda0Rbf09F9esO-57" value="slave" style="sketch=0;aspect=fixed;html=1;points=[];align=center;image;fontSize=12;image=img/lib/mscae/Cache_Redis_Product.svg;" parent="1" vertex="1">
          <mxGeometry x="790" y="227.5" width="50" height="42" as="geometry" />
        </mxCell>
        <mxCell id="2Fcq3Pcda0Rbf09F9esO-58" value="分片2" style="rounded=1;fontSize=8;fillColor=none;strokeColor=none;html=1;" parent="1" vertex="1">
          <mxGeometry x="780" y="291.5" width="70" height="30" as="geometry" />
        </mxCell>
        <mxCell id="2Fcq3Pcda0Rbf09F9esO-59" value="master" style="sketch=0;aspect=fixed;html=1;points=[];align=center;image;fontSize=12;image=img/lib/mscae/Cache_Redis_Product.svg;" parent="1" vertex="1">
          <mxGeometry x="870" y="159.5" width="50" height="42" as="geometry" />
        </mxCell>
        <mxCell id="2Fcq3Pcda0Rbf09F9esO-60" value="slave" style="sketch=0;aspect=fixed;html=1;points=[];align=center;image;fontSize=12;image=img/lib/mscae/Cache_Redis_Product.svg;" parent="1" vertex="1">
          <mxGeometry x="870" y="227.5" width="50" height="42" as="geometry" />
        </mxCell>
        <mxCell id="2Fcq3Pcda0Rbf09F9esO-61" value="分片3" style="rounded=1;fontSize=8;fillColor=none;strokeColor=none;html=1;" parent="1" vertex="1">
          <mxGeometry x="860" y="291.5" width="70" height="30" as="geometry" />
        </mxCell>
        <mxCell id="2Fcq3Pcda0Rbf09F9esO-94" value="" style="rounded=0;whiteSpace=wrap;html=1;strokeColor=#ADADAD;fillColor=none;gradientColor=none;" parent="1" vertex="1">
          <mxGeometry x="118" y="460" width="210" height="90" as="geometry" />
        </mxCell>
        <mxCell id="2Fcq3Pcda0Rbf09F9esO-95" value="master" style="sketch=0;aspect=fixed;html=1;points=[];align=center;image;fontSize=12;image=img/lib/mscae/Cache_Redis_Product.svg;" parent="1" vertex="1">
          <mxGeometry x="128" y="591" width="50" height="42" as="geometry" />
        </mxCell>
        <mxCell id="2Fcq3Pcda0Rbf09F9esO-98" value="" style="aspect=fixed;html=1;points=[];align=center;image;fontSize=12;image=img/lib/azure2/security/Azure_Sentinel.svg;" parent="1" vertex="1">
          <mxGeometry x="262.41" y="490" width="41.18" height="50" as="geometry" />
        </mxCell>
        <mxCell id="2Fcq3Pcda0Rbf09F9esO-99" value="slave" style="sketch=0;aspect=fixed;html=1;points=[];align=center;image;fontSize=12;image=img/lib/mscae/Cache_Redis_Product.svg;" parent="1" vertex="1">
          <mxGeometry x="268" y="591" width="50" height="42" as="geometry" />
        </mxCell>
        <mxCell id="2Fcq3Pcda0Rbf09F9esO-100" value="slave" style="sketch=0;aspect=fixed;html=1;points=[];align=center;image;fontSize=12;image=img/lib/mscae/Cache_Redis_Product.svg;" parent="1" vertex="1">
          <mxGeometry x="198" y="591" width="50" height="42" as="geometry" />
        </mxCell>
        <mxCell id="2Fcq3Pcda0Rbf09F9esO-101" value="实例" style="rounded=1;whiteSpace=wrap;html=1;" parent="1" vertex="1">
          <mxGeometry x="68" y="591" width="40" height="20" as="geometry" />
        </mxCell>
        <mxCell id="2Fcq3Pcda0Rbf09F9esO-111" value="sentinel onPort:26379" style="rounded=1;whiteSpace=wrap;strokeColor=none;fillColor=none;align=left;fontSize=10;" parent="1" vertex="1">
          <mxGeometry x="158" y="464" width="130" height="20" as="geometry" />
        </mxCell>
        <mxCell id="2Fcq3Pcda0Rbf09F9esO-117" style="edgeStyle=none;rounded=0;orthogonalLoop=1;jettySize=auto;html=1;entryX=0.507;entryY=-0.056;entryDx=0;entryDy=0;entryPerimeter=0;dashed=1;fontSize=10;strokeColor=#787878;endSize=3;" parent="1" source="2Fcq3Pcda0Rbf09F9esO-112" target="2Fcq3Pcda0Rbf09F9esO-95" edge="1">
          <mxGeometry relative="1" as="geometry" />
        </mxCell>
        <mxCell id="2Fcq3Pcda0Rbf09F9esO-112" value="" style="aspect=fixed;html=1;points=[];align=center;image;fontSize=12;image=img/lib/azure2/security/Azure_Sentinel.svg;" parent="1" vertex="1">
          <mxGeometry x="136.82000000000002" y="490" width="41.18" height="50" as="geometry" />
        </mxCell>
        <mxCell id="2Fcq3Pcda0Rbf09F9esO-113" value="" style="aspect=fixed;html=1;points=[];align=center;image;fontSize=12;image=img/lib/azure2/security/Azure_Sentinel.svg;" parent="1" vertex="1">
          <mxGeometry x="202.41000000000003" y="490" width="41.18" height="50" as="geometry" />
        </mxCell>
        <mxCell id="2Fcq3Pcda0Rbf09F9esO-118" style="edgeStyle=none;rounded=0;orthogonalLoop=1;jettySize=auto;html=1;entryX=0.513;entryY=-0.008;entryDx=0;entryDy=0;entryPerimeter=0;dashed=1;fontSize=10;strokeColor=#787878;endSize=3;" parent="1" target="2Fcq3Pcda0Rbf09F9esO-100" edge="1">
          <mxGeometry relative="1" as="geometry">
            <mxPoint x="158" y="540" as="sourcePoint" />
            <mxPoint x="173.35000000000002" y="587.648" as="targetPoint" />
          </mxGeometry>
        </mxCell>
        <mxCell id="2Fcq3Pcda0Rbf09F9esO-119" style="edgeStyle=none;rounded=0;orthogonalLoop=1;jettySize=auto;html=1;entryX=0.493;entryY=-0.008;entryDx=0;entryDy=0;entryPerimeter=0;dashed=1;fontSize=10;strokeColor=#787878;endSize=3;" parent="1" target="2Fcq3Pcda0Rbf09F9esO-99" edge="1">
          <mxGeometry relative="1" as="geometry">
            <mxPoint x="158" y="540" as="sourcePoint" />
            <mxPoint x="183.35000000000002" y="597.648" as="targetPoint" />
          </mxGeometry>
        </mxCell>
        <mxCell id="2Fcq3Pcda0Rbf09F9esO-120" style="edgeStyle=none;rounded=0;orthogonalLoop=1;jettySize=auto;html=1;entryX=0.54;entryY=-0.032;entryDx=0;entryDy=0;entryPerimeter=0;dashed=1;fontSize=10;strokeColor=#787878;endSize=3;exitX=0.484;exitY=1.013;exitDx=0;exitDy=0;exitPerimeter=0;" parent="1" source="2Fcq3Pcda0Rbf09F9esO-113" target="2Fcq3Pcda0Rbf09F9esO-95" edge="1">
          <mxGeometry relative="1" as="geometry">
            <mxPoint x="189.78038692376447" y="570" as="sourcePoint" />
            <mxPoint x="193.35000000000002" y="607.648" as="targetPoint" />
          </mxGeometry>
        </mxCell>
        <mxCell id="2Fcq3Pcda0Rbf09F9esO-121" style="edgeStyle=none;rounded=0;orthogonalLoop=1;jettySize=auto;html=1;dashed=1;fontSize=10;strokeColor=#787878;endSize=3;exitX=0.54;exitY=0.973;exitDx=0;exitDy=0;exitPerimeter=0;" parent="1" source="2Fcq3Pcda0Rbf09F9esO-113" target="2Fcq3Pcda0Rbf09F9esO-100" edge="1">
          <mxGeometry relative="1" as="geometry">
            <mxPoint x="199.78038692376447" y="580" as="sourcePoint" />
            <mxPoint x="203.35000000000002" y="617.648" as="targetPoint" />
          </mxGeometry>
        </mxCell>
        <mxCell id="2Fcq3Pcda0Rbf09F9esO-122" style="edgeStyle=none;rounded=0;orthogonalLoop=1;jettySize=auto;html=1;entryX=0.48;entryY=-0.024;entryDx=0;entryDy=0;entryPerimeter=0;dashed=1;fontSize=10;strokeColor=#787878;endSize=3;exitX=0.621;exitY=1.007;exitDx=0;exitDy=0;exitPerimeter=0;" parent="1" source="2Fcq3Pcda0Rbf09F9esO-113" target="2Fcq3Pcda0Rbf09F9esO-99" edge="1">
          <mxGeometry relative="1" as="geometry">
            <mxPoint x="209.78038692376447" y="590" as="sourcePoint" />
            <mxPoint x="213.35000000000002" y="627.648" as="targetPoint" />
          </mxGeometry>
        </mxCell>
        <mxCell id="2Fcq3Pcda0Rbf09F9esO-123" style="edgeStyle=none;rounded=0;orthogonalLoop=1;jettySize=auto;html=1;entryX=0.613;entryY=-0.024;entryDx=0;entryDy=0;entryPerimeter=0;dashed=1;fontSize=10;strokeColor=#787878;endSize=3;exitX=0.501;exitY=0.985;exitDx=0;exitDy=0;exitPerimeter=0;" parent="1" source="2Fcq3Pcda0Rbf09F9esO-98" target="2Fcq3Pcda0Rbf09F9esO-95" edge="1">
          <mxGeometry relative="1" as="geometry">
            <mxPoint x="219.78038692376447" y="600" as="sourcePoint" />
            <mxPoint x="223.35000000000002" y="637.648" as="targetPoint" />
          </mxGeometry>
        </mxCell>
        <mxCell id="2Fcq3Pcda0Rbf09F9esO-124" style="edgeStyle=none;rounded=0;orthogonalLoop=1;jettySize=auto;html=1;entryX=0.573;entryY=-0.04;entryDx=0;entryDy=0;entryPerimeter=0;dashed=1;fontSize=10;strokeColor=#787878;endSize=3;exitX=0.473;exitY=0.998;exitDx=0;exitDy=0;exitPerimeter=0;" parent="1" source="2Fcq3Pcda0Rbf09F9esO-98" target="2Fcq3Pcda0Rbf09F9esO-100" edge="1">
          <mxGeometry relative="1" as="geometry">
            <mxPoint x="229.78038692376447" y="610" as="sourcePoint" />
            <mxPoint x="233.35000000000002" y="647.648" as="targetPoint" />
          </mxGeometry>
        </mxCell>
        <mxCell id="2Fcq3Pcda0Rbf09F9esO-125" style="edgeStyle=none;rounded=0;orthogonalLoop=1;jettySize=auto;html=1;dashed=1;fontSize=10;strokeColor=#787878;endSize=3;exitX=0.552;exitY=0.979;exitDx=0;exitDy=0;exitPerimeter=0;" parent="1" source="2Fcq3Pcda0Rbf09F9esO-98" target="2Fcq3Pcda0Rbf09F9esO-99" edge="1">
          <mxGeometry relative="1" as="geometry">
            <mxPoint x="239.78038692376447" y="620" as="sourcePoint" />
            <mxPoint x="243.35000000000002" y="657.648" as="targetPoint" />
          </mxGeometry>
        </mxCell>
        <mxCell id="2Fcq3Pcda0Rbf09F9esO-126" value="client" style="sketch=0;pointerEvents=1;shadow=0;dashed=0;html=1;strokeColor=none;labelPosition=center;verticalLabelPosition=bottom;verticalAlign=top;align=center;fillColor=#9E9E9E;shape=mxgraph.mscae.intune.client_software;fontSize=10;" parent="1" vertex="1">
          <mxGeometry x="580" y="68" width="50" height="45" as="geometry" />
        </mxCell>
        <mxCell id="SwYEhvY1zTtye4a5UMkW-9" style="edgeStyle=orthogonalEdgeStyle;rounded=0;orthogonalLoop=1;jettySize=auto;html=1;exitX=1;exitY=0.5;exitDx=0;exitDy=0;endSize=4;" parent="1" source="SwYEhvY1zTtye4a5UMkW-2" edge="1">
          <mxGeometry relative="1" as="geometry">
            <mxPoint x="560" y="509" as="targetPoint" />
            <Array as="points">
              <mxPoint x="610" y="453" />
              <mxPoint x="610" y="490" />
              <mxPoint x="560" y="490" />
            </Array>
          </mxGeometry>
        </mxCell>
        <mxCell id="SwYEhvY1zTtye4a5UMkW-2" value="Custom Resource" style="rounded=1;whiteSpace=wrap;html=1;fillColor=#d5e8d4;strokeColor=#82b366;" parent="1" vertex="1">
          <mxGeometry x="467.5" y="430" width="110" height="46" as="geometry" />
        </mxCell>
        <mxCell id="SwYEhvY1zTtye4a5UMkW-3" value="Operator" style="rounded=1;whiteSpace=wrap;html=1;" parent="1" vertex="1">
          <mxGeometry x="417" y="534" width="110" height="40" as="geometry" />
        </mxCell>
        <mxCell id="SwYEhvY1zTtye4a5UMkW-4" value="CRD" style="rounded=1;whiteSpace=wrap;html=1;" parent="1" vertex="1">
          <mxGeometry x="417" y="610" width="110" height="40" as="geometry" />
        </mxCell>
        <mxCell id="SwYEhvY1zTtye4a5UMkW-5" value="Controller" style="rounded=1;whiteSpace=wrap;html=1;" parent="1" vertex="1">
          <mxGeometry x="550" y="610" width="110" height="40" as="geometry" />
        </mxCell>
        <mxCell id="SwYEhvY1zTtye4a5UMkW-7" value="Client-go" style="rounded=0;whiteSpace=wrap;html=1;" parent="1" vertex="1">
          <mxGeometry x="400" y="690" width="280" height="60" as="geometry" />
        </mxCell>
        <mxCell id="SwYEhvY1zTtye4a5UMkW-10" value="tracking" style="text;html=1;resizable=0;autosize=1;align=center;verticalAlign=middle;points=[];fillColor=none;strokeColor=none;rounded=0;" parent="1" vertex="1">
          <mxGeometry x="380" y="470" width="60" height="20" as="geometry" />
        </mxCell>
        <mxCell id="SwYEhvY1zTtye4a5UMkW-11" value="change events" style="text;html=1;resizable=0;autosize=1;align=center;verticalAlign=middle;points=[];fillColor=none;strokeColor=none;rounded=0;" parent="1" vertex="1">
          <mxGeometry x="610" y="464" width="90" height="20" as="geometry" />
        </mxCell>
        <mxCell id="SwYEhvY1zTtye4a5UMkW-12" value="" style="shape=image;html=1;verticalAlign=top;verticalLabelPosition=bottom;labelBackgroundColor=#ffffff;imageAspect=0;aspect=fixed;image=https://cdn0.iconfinder.com/data/icons/faticons-2/29/refresh27-128.png;strokeWidth=2;" parent="1" vertex="1">
          <mxGeometry x="590" y="534" width="19" height="19" as="geometry" />
        </mxCell>
        <mxCell id="SwYEhvY1zTtye4a5UMkW-16" style="edgeStyle=orthogonalEdgeStyle;rounded=0;orthogonalLoop=1;jettySize=auto;html=1;endSize=4;entryX=0.5;entryY=0;entryDx=0;entryDy=0;" parent="1" target="SwYEhvY1zTtye4a5UMkW-17" edge="1">
          <mxGeometry relative="1" as="geometry">
            <mxPoint x="760" y="630" as="targetPoint" />
            <mxPoint x="680" y="590" as="sourcePoint" />
          </mxGeometry>
        </mxCell>
        <mxCell id="SwYEhvY1zTtye4a5UMkW-19" value="Adjust" style="edgeLabel;html=1;align=center;verticalAlign=middle;resizable=0;points=[];" parent="SwYEhvY1zTtye4a5UMkW-16" vertex="1" connectable="0">
          <mxGeometry x="-0.1465" y="1" relative="1" as="geometry">
            <mxPoint x="-10" y="-12" as="offset" />
          </mxGeometry>
        </mxCell>
        <mxCell id="SwYEhvY1zTtye4a5UMkW-15" value="Reconcile" style="text;html=1;resizable=0;autosize=1;align=center;verticalAlign=middle;points=[];fillColor=none;strokeColor=none;rounded=0;labelBackgroundColor=none;" parent="1" vertex="1">
          <mxGeometry x="564.5" y="554" width="70" height="20" as="geometry" />
        </mxCell>
        <mxCell id="SwYEhvY1zTtye4a5UMkW-17" value="current state" style="rounded=1;whiteSpace=wrap;html=1;" parent="1" vertex="1">
          <mxGeometry x="710" y="635" width="110" height="40" as="geometry" />
        </mxCell>
        <mxCell id="SwYEhvY1zTtye4a5UMkW-41" style="edgeStyle=orthogonalEdgeStyle;rounded=0;orthogonalLoop=1;jettySize=auto;html=1;exitX=1;exitY=0.5;exitDx=0;exitDy=0;entryX=0;entryY=0.5;entryDx=0;entryDy=0;endSize=4;" parent="1" source="SwYEhvY1zTtye4a5UMkW-23" target="SwYEhvY1zTtye4a5UMkW-35" edge="1">
          <mxGeometry relative="1" as="geometry" />
        </mxCell>
        <mxCell id="SwYEhvY1zTtye4a5UMkW-23" value="K8S资源校验" style="rounded=1;whiteSpace=wrap;html=1;fillColor=#dae8fc;strokeColor=#6c8ebf;" parent="1" vertex="1">
          <mxGeometry x="1058" y="520.5" width="110" height="46" as="geometry" />
        </mxCell>
        <mxCell id="SwYEhvY1zTtye4a5UMkW-40" style="edgeStyle=orthogonalEdgeStyle;rounded=0;orthogonalLoop=1;jettySize=auto;html=1;exitX=1;exitY=0.5;exitDx=0;exitDy=0;entryX=0;entryY=0.5;entryDx=0;entryDy=0;endSize=4;" parent="1" source="SwYEhvY1zTtye4a5UMkW-24" target="SwYEhvY1zTtye4a5UMkW-23" edge="1">
          <mxGeometry relative="1" as="geometry" />
        </mxCell>
        <mxCell id="SwYEhvY1zTtye4a5UMkW-24" value="CR实例" style="rounded=1;whiteSpace=wrap;html=1;fillColor=#ffe6cc;strokeColor=#d79b00;" parent="1" vertex="1">
          <mxGeometry x="928" y="523.5" width="110" height="40" as="geometry" />
        </mxCell>
        <mxCell id="SwYEhvY1zTtye4a5UMkW-47" style="edgeStyle=none;rounded=0;orthogonalLoop=1;jettySize=auto;html=1;exitX=1;exitY=0.5;exitDx=0;exitDy=0;endSize=4;" parent="1" source="SwYEhvY1zTtye4a5UMkW-35" target="SwYEhvY1zTtye4a5UMkW-36" edge="1">
          <mxGeometry relative="1" as="geometry" />
        </mxCell>
        <mxCell id="SwYEhvY1zTtye4a5UMkW-35" value="创建对应的config map、statefulset service pvc" style="rounded=1;whiteSpace=wrap;html=1;fillColor=#dae8fc;strokeColor=#6c8ebf;" parent="1" vertex="1">
          <mxGeometry x="1190" y="520.5" width="110" height="46" as="geometry" />
        </mxCell>
        <mxCell id="SwYEhvY1zTtye4a5UMkW-44" style="edgeStyle=none;rounded=0;orthogonalLoop=1;jettySize=auto;html=1;exitX=1;exitY=0.5;exitDx=0;exitDy=0;entryX=0;entryY=0.5;entryDx=0;entryDy=0;endSize=4;" parent="1" source="SwYEhvY1zTtye4a5UMkW-36" target="SwYEhvY1zTtye4a5UMkW-37" edge="1">
          <mxGeometry relative="1" as="geometry" />
        </mxCell>
        <mxCell id="SwYEhvY1zTtye4a5UMkW-45" style="edgeStyle=none;rounded=0;orthogonalLoop=1;jettySize=auto;html=1;exitX=1;exitY=0.5;exitDx=0;exitDy=0;entryX=0;entryY=0.5;entryDx=0;entryDy=0;endSize=4;" parent="1" source="SwYEhvY1zTtye4a5UMkW-36" target="SwYEhvY1zTtye4a5UMkW-38" edge="1">
          <mxGeometry relative="1" as="geometry" />
        </mxCell>
        <mxCell id="SwYEhvY1zTtye4a5UMkW-36" value="确保集群健康" style="rounded=1;whiteSpace=wrap;html=1;fillColor=#60a917;strokeColor=#2D7600;fontColor=#ffffff;" parent="1" vertex="1">
          <mxGeometry x="1320" y="520.5" width="110" height="46" as="geometry" />
        </mxCell>
        <mxCell id="SwYEhvY1zTtye4a5UMkW-46" style="edgeStyle=none;rounded=0;orthogonalLoop=1;jettySize=auto;html=1;exitX=1;exitY=0.5;exitDx=0;exitDy=0;entryX=0;entryY=0.5;entryDx=0;entryDy=0;endSize=4;" parent="1" source="SwYEhvY1zTtye4a5UMkW-37" target="SwYEhvY1zTtye4a5UMkW-39" edge="1">
          <mxGeometry relative="1" as="geometry" />
        </mxCell>
        <mxCell id="SwYEhvY1zTtye4a5UMkW-37" value="创建proxy deployment 、configmap 、service" style="rounded=1;whiteSpace=wrap;html=1;fillColor=#dae8fc;strokeColor=#6c8ebf;" parent="1" vertex="1">
          <mxGeometry x="1450" y="470" width="150" height="46" as="geometry" />
        </mxCell>
        <mxCell id="SwYEhvY1zTtye4a5UMkW-38" value="更新出口service" style="rounded=1;whiteSpace=wrap;html=1;fillColor=#60a917;strokeColor=#2D7600;fontColor=#ffffff;" parent="1" vertex="1">
          <mxGeometry x="1450" y="564" width="150" height="46" as="geometry" />
        </mxCell>
        <mxCell id="SwYEhvY1zTtye4a5UMkW-39" value="确保代理健康" style="rounded=1;whiteSpace=wrap;html=1;fillColor=#60a917;strokeColor=#2D7600;fontColor=#ffffff;" parent="1" vertex="1">
          <mxGeometry x="1630" y="470" width="150" height="46" as="geometry" />
        </mxCell>
        <mxCell id="vBZXi1XHdykudHTi2sjK-1" style="edgeStyle=orthogonalEdgeStyle;rounded=0;orthogonalLoop=1;jettySize=auto;html=1;exitX=1;exitY=0.5;exitDx=0;exitDy=0;entryX=0;entryY=0.5;entryDx=0;entryDy=0;endSize=4;" parent="1" source="vBZXi1XHdykudHTi2sjK-2" target="vBZXi1XHdykudHTi2sjK-6" edge="1">
          <mxGeometry relative="1" as="geometry" />
        </mxCell>
        <mxCell id="vBZXi1XHdykudHTi2sjK-2" value="K8S资源校验" style="rounded=1;whiteSpace=wrap;html=1;fillColor=#dae8fc;strokeColor=#6c8ebf;" parent="1" vertex="1">
          <mxGeometry x="1060" y="700.5" width="110" height="46" as="geometry" />
        </mxCell>
        <mxCell id="vBZXi1XHdykudHTi2sjK-3" style="edgeStyle=orthogonalEdgeStyle;rounded=0;orthogonalLoop=1;jettySize=auto;html=1;exitX=1;exitY=0.5;exitDx=0;exitDy=0;entryX=0;entryY=0.5;entryDx=0;entryDy=0;endSize=4;" parent="1" source="vBZXi1XHdykudHTi2sjK-4" target="vBZXi1XHdykudHTi2sjK-2" edge="1">
          <mxGeometry relative="1" as="geometry" />
        </mxCell>
        <mxCell id="vBZXi1XHdykudHTi2sjK-4" value="CR实例" style="rounded=1;whiteSpace=wrap;html=1;fillColor=#ffe6cc;strokeColor=#d79b00;" parent="1" vertex="1">
          <mxGeometry x="930" y="703.5" width="110" height="40" as="geometry" />
        </mxCell>
        <mxCell id="vBZXi1XHdykudHTi2sjK-5" style="edgeStyle=none;rounded=0;orthogonalLoop=1;jettySize=auto;html=1;exitX=1;exitY=0.5;exitDx=0;exitDy=0;endSize=4;" parent="1" source="vBZXi1XHdykudHTi2sjK-6" target="vBZXi1XHdykudHTi2sjK-9" edge="1">
          <mxGeometry relative="1" as="geometry" />
        </mxCell>
        <mxCell id="vBZXi1XHdykudHTi2sjK-6" value="创建对应的config map、statefulset service pvc" style="rounded=1;whiteSpace=wrap;html=1;fillColor=#dae8fc;strokeColor=#6c8ebf;" parent="1" vertex="1">
          <mxGeometry x="1192" y="700.5" width="110" height="46" as="geometry" />
        </mxCell>
        <mxCell id="vBZXi1XHdykudHTi2sjK-8" style="edgeStyle=none;rounded=0;orthogonalLoop=1;jettySize=auto;html=1;exitX=1;exitY=0.5;exitDx=0;exitDy=0;entryX=0;entryY=0.5;entryDx=0;entryDy=0;endSize=4;" parent="1" source="vBZXi1XHdykudHTi2sjK-9" target="vBZXi1XHdykudHTi2sjK-12" edge="1">
          <mxGeometry relative="1" as="geometry" />
        </mxCell>
        <mxCell id="vBZXi1XHdykudHTi2sjK-9" value="确保集群健康" style="rounded=1;whiteSpace=wrap;html=1;fillColor=#60a917;strokeColor=#2D7600;fontColor=#ffffff;" parent="1" vertex="1">
          <mxGeometry x="1322" y="700.5" width="110" height="46" as="geometry" />
        </mxCell>
        <mxCell id="vBZXi1XHdykudHTi2sjK-12" value="更新出口service" style="rounded=1;whiteSpace=wrap;html=1;fillColor=#60a917;strokeColor=#2D7600;fontColor=#ffffff;" parent="1" vertex="1">
          <mxGeometry x="1452" y="700.5" width="150" height="46" as="geometry" />
        </mxCell>
        <mxCell id="vBZXi1XHdykudHTi2sjK-14" style="edgeStyle=orthogonalEdgeStyle;rounded=0;orthogonalLoop=1;jettySize=auto;html=1;exitX=1;exitY=0.5;exitDx=0;exitDy=0;entryX=0;entryY=0.5;entryDx=0;entryDy=0;endSize=4;" parent="1" source="vBZXi1XHdykudHTi2sjK-15" target="vBZXi1XHdykudHTi2sjK-19" edge="1">
          <mxGeometry relative="1" as="geometry" />
        </mxCell>
        <mxCell id="vBZXi1XHdykudHTi2sjK-15" value="K8S资源校验" style="rounded=1;whiteSpace=wrap;html=1;fillColor=#dae8fc;strokeColor=#6c8ebf;" parent="1" vertex="1">
          <mxGeometry x="1058" y="910.5" width="110" height="46" as="geometry" />
        </mxCell>
        <mxCell id="vBZXi1XHdykudHTi2sjK-16" style="edgeStyle=orthogonalEdgeStyle;rounded=0;orthogonalLoop=1;jettySize=auto;html=1;exitX=1;exitY=0.5;exitDx=0;exitDy=0;entryX=0;entryY=0.5;entryDx=0;entryDy=0;endSize=4;" parent="1" source="vBZXi1XHdykudHTi2sjK-17" target="vBZXi1XHdykudHTi2sjK-15" edge="1">
          <mxGeometry relative="1" as="geometry" />
        </mxCell>
        <mxCell id="vBZXi1XHdykudHTi2sjK-17" value="CR实例" style="rounded=1;whiteSpace=wrap;html=1;fillColor=#ffe6cc;strokeColor=#d79b00;" parent="1" vertex="1">
          <mxGeometry x="928" y="913.5" width="110" height="40" as="geometry" />
        </mxCell>
        <mxCell id="vBZXi1XHdykudHTi2sjK-18" style="edgeStyle=none;rounded=0;orthogonalLoop=1;jettySize=auto;html=1;exitX=1;exitY=0.5;exitDx=0;exitDy=0;endSize=4;" parent="1" source="vBZXi1XHdykudHTi2sjK-19" target="vBZXi1XHdykudHTi2sjK-22" edge="1">
          <mxGeometry relative="1" as="geometry" />
        </mxCell>
        <mxCell id="vBZXi1XHdykudHTi2sjK-19" value="创建对应的config map、statefulset service pvc" style="rounded=1;whiteSpace=wrap;html=1;fillColor=#dae8fc;strokeColor=#6c8ebf;" parent="1" vertex="1">
          <mxGeometry x="1190" y="910.5" width="110" height="46" as="geometry" />
        </mxCell>
        <mxCell id="vBZXi1XHdykudHTi2sjK-20" style="edgeStyle=none;rounded=0;orthogonalLoop=1;jettySize=auto;html=1;exitX=1;exitY=0.5;exitDx=0;exitDy=0;entryX=0;entryY=0.5;entryDx=0;entryDy=0;endSize=4;" parent="1" source="vBZXi1XHdykudHTi2sjK-22" target="vBZXi1XHdykudHTi2sjK-24" edge="1">
          <mxGeometry relative="1" as="geometry" />
        </mxCell>
        <mxCell id="vBZXi1XHdykudHTi2sjK-22" value="确保集群健康" style="rounded=1;whiteSpace=wrap;html=1;fillColor=#60a917;strokeColor=#2D7600;fontColor=#ffffff;" parent="1" vertex="1">
          <mxGeometry x="1320" y="910.5" width="110" height="46" as="geometry" />
        </mxCell>
        <mxCell id="vBZXi1XHdykudHTi2sjK-23" style="edgeStyle=none;rounded=0;orthogonalLoop=1;jettySize=auto;html=1;exitX=1;exitY=0.5;exitDx=0;exitDy=0;entryX=0;entryY=0.5;entryDx=0;entryDy=0;endSize=4;" parent="1" source="vBZXi1XHdykudHTi2sjK-24" target="vBZXi1XHdykudHTi2sjK-26" edge="1">
          <mxGeometry relative="1" as="geometry" />
        </mxCell>
        <mxCell id="vBZXi1XHdykudHTi2sjK-24" value="创建proxy deployment 、configmap 、service" style="rounded=1;whiteSpace=wrap;html=1;fillColor=#dae8fc;strokeColor=#6c8ebf;" parent="1" vertex="1">
          <mxGeometry x="1450" y="910.5" width="150" height="46" as="geometry" />
        </mxCell>
        <mxCell id="vBZXi1XHdykudHTi2sjK-26" value="确保代理健康" style="rounded=1;whiteSpace=wrap;html=1;fillColor=#60a917;strokeColor=#2D7600;fontColor=#ffffff;" parent="1" vertex="1">
          <mxGeometry x="1620" y="910.5" width="150" height="46" as="geometry" />
        </mxCell>
        <mxCell id="_x-VhurMgfSDuc2ts5zv-8" value="&lt;p style=&quot;margin: 0px ; margin-top: 4px ; margin-left: 10px ; text-align: left&quot;&gt;&lt;b&gt;Operator&lt;/b&gt;&lt;/p&gt;" style="html=1;shape=mxgraph.sysml.package;align=left;spacingLeft=5;verticalAlign=top;spacingTop=-3;labelX=135;html=1;overflow=fill;" vertex="1" parent="1">
          <mxGeometry x="43.800000000000004" y="900.25" width="236.41" height="79.75" as="geometry" />
        </mxCell>
        <mxCell id="_x-VhurMgfSDuc2ts5zv-13" value="" style="sketch=0;aspect=fixed;html=1;points=[];align=center;image;fontSize=12;image=img/lib/mscae/Kubernetes.svg;dashed=1;strokeColor=#C7C7C7;" vertex="1" parent="1">
          <mxGeometry x="64.75" y="800" width="50" height="48" as="geometry" />
        </mxCell>
        <mxCell id="_x-VhurMgfSDuc2ts5zv-14" value="&lt;b&gt;Kubernetes&lt;/b&gt;" style="text;html=1;resizable=0;autosize=1;align=center;verticalAlign=middle;points=[];fillColor=none;strokeColor=none;rounded=0;" vertex="1" parent="1">
          <mxGeometry x="46.75" y="778" width="80" height="20" as="geometry" />
        </mxCell>
        <mxCell id="_x-VhurMgfSDuc2ts5zv-15" value="API Server" style="rounded=1;whiteSpace=wrap;html=1;strokeColor=#121212;" vertex="1" parent="1">
          <mxGeometry x="163.25" y="809" width="120" height="30" as="geometry" />
        </mxCell>
        <mxCell id="_x-VhurMgfSDuc2ts5zv-16" value="Controller Manager" style="rounded=1;whiteSpace=wrap;html=1;strokeColor=#121212;" vertex="1" parent="1">
          <mxGeometry x="444.25" y="809" width="120" height="30" as="geometry" />
        </mxCell>
        <mxCell id="_x-VhurMgfSDuc2ts5zv-17" value="Scheduler" style="rounded=1;whiteSpace=wrap;html=1;strokeColor=#121212;" vertex="1" parent="1">
          <mxGeometry x="308.25" y="809" width="120" height="30" as="geometry" />
        </mxCell>
        <mxCell id="_x-VhurMgfSDuc2ts5zv-19" value="operator-1" style="text;html=1;resizable=0;autosize=1;align=center;verticalAlign=middle;points=[];fillColor=none;strokeColor=none;rounded=0;" vertex="1" parent="1">
          <mxGeometry x="70" y="940" width="70" height="20" as="geometry" />
        </mxCell>
        <mxCell id="_x-VhurMgfSDuc2ts5zv-41" style="rounded=0;orthogonalLoop=1;jettySize=auto;html=1;exitX=0.5;exitY=1;exitDx=0;exitDy=0;exitPerimeter=0;entryX=0.5;entryY=0;entryDx=0;entryDy=0;entryPerimeter=0;endSize=1;dashed=1;dashPattern=1 1;strokeColor=#737373;" edge="1" parent="1" source="_x-VhurMgfSDuc2ts5zv-20" target="_x-VhurMgfSDuc2ts5zv-28">
          <mxGeometry relative="1" as="geometry" />
        </mxCell>
        <mxCell id="_x-VhurMgfSDuc2ts5zv-42" style="edgeStyle=none;rounded=0;orthogonalLoop=1;jettySize=auto;html=1;exitX=0.5;exitY=1;exitDx=0;exitDy=0;exitPerimeter=0;entryX=0.5;entryY=0;entryDx=0;entryDy=0;entryPerimeter=0;endSize=1;dashed=1;dashPattern=1 1;strokeColor=#737373;" edge="1" parent="1" source="_x-VhurMgfSDuc2ts5zv-20" target="_x-VhurMgfSDuc2ts5zv-30">
          <mxGeometry relative="1" as="geometry" />
        </mxCell>
        <mxCell id="_x-VhurMgfSDuc2ts5zv-43" style="edgeStyle=none;rounded=0;orthogonalLoop=1;jettySize=auto;html=1;exitX=0.5;exitY=1;exitDx=0;exitDy=0;exitPerimeter=0;entryX=0.5;entryY=0;entryDx=0;entryDy=0;entryPerimeter=0;endSize=1;strokeColor=#737373;dashed=1;dashPattern=1 1;" edge="1" parent="1" source="_x-VhurMgfSDuc2ts5zv-20" target="_x-VhurMgfSDuc2ts5zv-29">
          <mxGeometry relative="1" as="geometry" />
        </mxCell>
        <mxCell id="_x-VhurMgfSDuc2ts5zv-20" value="" style="sketch=0;html=1;dashed=0;whitespace=wrap;fillColor=#ffe6cc;strokeColor=#d79b00;points=[[0.005,0.63,0],[0.1,0.2,0],[0.9,0.2,0],[0.5,0,0],[0.995,0.63,0],[0.72,0.99,0],[0.5,1,0],[0.28,0.99,0]];shape=mxgraph.kubernetes.icon;prIcon=pod" vertex="1" parent="1">
          <mxGeometry x="116" y="1070" width="50" height="48" as="geometry" />
        </mxCell>
        <mxCell id="_x-VhurMgfSDuc2ts5zv-21" value="operator-2" style="text;html=1;resizable=0;autosize=1;align=center;verticalAlign=middle;points=[];fillColor=none;strokeColor=none;rounded=0;" vertex="1" parent="1">
          <mxGeometry x="173.59" y="940" width="70" height="20" as="geometry" />
        </mxCell>
        <mxCell id="_x-VhurMgfSDuc2ts5zv-22" value="Kube-Plugin" style="rounded=1;whiteSpace=wrap;html=1;strokeColor=#121212;" vertex="1" parent="1">
          <mxGeometry x="324.25" y="900.25" width="245.75" height="79.75" as="geometry" />
        </mxCell>
        <mxCell id="_x-VhurMgfSDuc2ts5zv-47" style="edgeStyle=none;rounded=0;orthogonalLoop=1;jettySize=auto;html=1;exitX=0.5;exitY=1;exitDx=0;exitDy=0;exitPerimeter=0;entryX=0.5;entryY=0;entryDx=0;entryDy=0;entryPerimeter=0;endSize=1;strokeColor=#737373;dashed=1;dashPattern=1 1;" edge="1" parent="1" source="_x-VhurMgfSDuc2ts5zv-24" target="_x-VhurMgfSDuc2ts5zv-30">
          <mxGeometry relative="1" as="geometry" />
        </mxCell>
        <mxCell id="_x-VhurMgfSDuc2ts5zv-48" style="edgeStyle=none;rounded=0;orthogonalLoop=1;jettySize=auto;html=1;exitX=0.5;exitY=1;exitDx=0;exitDy=0;exitPerimeter=0;endSize=1;strokeColor=#737373;dashed=1;dashPattern=1 1;" edge="1" parent="1" source="_x-VhurMgfSDuc2ts5zv-24" target="_x-VhurMgfSDuc2ts5zv-29">
          <mxGeometry relative="1" as="geometry" />
        </mxCell>
        <mxCell id="_x-VhurMgfSDuc2ts5zv-49" style="edgeStyle=none;rounded=0;orthogonalLoop=1;jettySize=auto;html=1;exitX=0.5;exitY=1;exitDx=0;exitDy=0;exitPerimeter=0;entryX=0.5;entryY=0;entryDx=0;entryDy=0;entryPerimeter=0;endSize=1;strokeColor=#737373;dashed=1;dashPattern=1 1;" edge="1" parent="1" source="_x-VhurMgfSDuc2ts5zv-24" target="_x-VhurMgfSDuc2ts5zv-28">
          <mxGeometry relative="1" as="geometry" />
        </mxCell>
        <mxCell id="_x-VhurMgfSDuc2ts5zv-24" value="" style="sketch=0;html=1;dashed=0;whitespace=wrap;fillColor=#ffe6cc;strokeColor=#d79b00;points=[[0.005,0.63,0],[0.1,0.2,0],[0.9,0.2,0],[0.5,0,0],[0.995,0.63,0],[0.72,0.99,0],[0.5,1,0],[0.28,0.99,0]];shape=mxgraph.kubernetes.icon;prIcon=pod" vertex="1" parent="1">
          <mxGeometry x="230" y="1068" width="50" height="48" as="geometry" />
        </mxCell>
        <mxCell id="_x-VhurMgfSDuc2ts5zv-44" style="edgeStyle=none;rounded=0;orthogonalLoop=1;jettySize=auto;html=1;exitX=0.5;exitY=1;exitDx=0;exitDy=0;exitPerimeter=0;entryX=0.5;entryY=0;entryDx=0;entryDy=0;entryPerimeter=0;endSize=1;dashed=1;dashPattern=1 1;strokeColor=#737373;" edge="1" parent="1" source="_x-VhurMgfSDuc2ts5zv-25" target="_x-VhurMgfSDuc2ts5zv-28">
          <mxGeometry relative="1" as="geometry" />
        </mxCell>
        <mxCell id="_x-VhurMgfSDuc2ts5zv-45" style="edgeStyle=none;rounded=0;orthogonalLoop=1;jettySize=auto;html=1;exitX=0.5;exitY=1;exitDx=0;exitDy=0;exitPerimeter=0;entryX=0.444;entryY=0.05;entryDx=0;entryDy=0;entryPerimeter=0;endSize=1;strokeColor=#737373;dashed=1;dashPattern=1 1;" edge="1" parent="1" source="_x-VhurMgfSDuc2ts5zv-25" target="_x-VhurMgfSDuc2ts5zv-30">
          <mxGeometry relative="1" as="geometry" />
        </mxCell>
        <mxCell id="_x-VhurMgfSDuc2ts5zv-46" style="edgeStyle=none;rounded=0;orthogonalLoop=1;jettySize=auto;html=1;exitX=0.5;exitY=1;exitDx=0;exitDy=0;exitPerimeter=0;entryX=0.5;entryY=0;entryDx=0;entryDy=0;entryPerimeter=0;endSize=1;strokeColor=#737373;dashed=1;dashPattern=1 1;" edge="1" parent="1" source="_x-VhurMgfSDuc2ts5zv-25" target="_x-VhurMgfSDuc2ts5zv-29">
          <mxGeometry relative="1" as="geometry" />
        </mxCell>
        <mxCell id="_x-VhurMgfSDuc2ts5zv-25" value="" style="sketch=0;html=1;dashed=0;whitespace=wrap;fillColor=#ffe6cc;strokeColor=#d79b00;points=[[0.005,0.63,0],[0.1,0.2,0],[0.9,0.2,0],[0.5,0,0],[0.995,0.63,0],[0.72,0.99,0],[0.5,1,0],[0.28,0.99,0]];shape=mxgraph.kubernetes.icon;prIcon=pod" vertex="1" parent="1">
          <mxGeometry x="173.59" y="1070" width="50" height="48" as="geometry" />
        </mxCell>
        <mxCell id="_x-VhurMgfSDuc2ts5zv-27" value="sentinel&lt;br&gt;cluster" style="text;html=1;resizable=0;autosize=1;align=left;verticalAlign=middle;points=[];fillColor=none;strokeColor=none;rounded=0;" vertex="1" parent="1">
          <mxGeometry x="54.75" y="1084" width="60" height="30" as="geometry" />
        </mxCell>
        <mxCell id="_x-VhurMgfSDuc2ts5zv-28" value="" style="sketch=0;html=1;dashed=0;whitespace=wrap;fillColor=#ffe6cc;strokeColor=#d79b00;points=[[0.005,0.63,0],[0.1,0.2,0],[0.9,0.2,0],[0.5,0,0],[0.995,0.63,0],[0.72,0.99,0],[0.5,1,0],[0.28,0.99,0]];shape=mxgraph.kubernetes.icon;prIcon=pod" vertex="1" parent="1">
          <mxGeometry x="117" y="1150" width="50" height="48" as="geometry" />
        </mxCell>
        <mxCell id="_x-VhurMgfSDuc2ts5zv-29" value="" style="sketch=0;html=1;dashed=0;whitespace=wrap;fillColor=#f5f5f5;strokeColor=#666666;points=[[0.005,0.63,0],[0.1,0.2,0],[0.9,0.2,0],[0.5,0,0],[0.995,0.63,0],[0.72,0.99,0],[0.5,1,0],[0.28,0.99,0]];shape=mxgraph.kubernetes.icon;prIcon=pod;fontColor=#333333;" vertex="1" parent="1">
          <mxGeometry x="233.59" y="1150" width="50" height="48" as="geometry" />
        </mxCell>
        <mxCell id="_x-VhurMgfSDuc2ts5zv-30" value="" style="sketch=0;html=1;dashed=0;whitespace=wrap;fillColor=#f5f5f5;strokeColor=#666666;points=[[0.005,0.63,0],[0.1,0.2,0],[0.9,0.2,0],[0.5,0,0],[0.995,0.63,0],[0.72,0.99,0],[0.5,1,0],[0.28,0.99,0]];shape=mxgraph.kubernetes.icon;prIcon=pod;fontColor=#333333;" vertex="1" parent="1">
          <mxGeometry x="173.59" y="1150" width="50" height="48" as="geometry" />
        </mxCell>
        <mxCell id="_x-VhurMgfSDuc2ts5zv-31" value="server" style="text;html=1;resizable=0;autosize=1;align=center;verticalAlign=middle;points=[];fillColor=none;strokeColor=none;rounded=0;" vertex="1" parent="1">
          <mxGeometry x="48.5" y="1164" width="50" height="20" as="geometry" />
        </mxCell>
        <mxCell id="_x-VhurMgfSDuc2ts5zv-34" value="Deployment Proxy" style="shadow=0;dashed=0;html=1;strokeColor=none;fillColor=#4495D1;labelPosition=center;verticalLabelPosition=bottom;verticalAlign=top;align=left;outlineConnect=0;shape=mxgraph.veeam.proxy_server;" vertex="1" parent="1">
          <mxGeometry x="336.11" y="1071" width="54.89" height="52" as="geometry" />
        </mxCell>
        <mxCell id="_x-VhurMgfSDuc2ts5zv-35" value="" style="sketch=0;html=1;dashed=0;whitespace=wrap;fillColor=#ffe6cc;strokeColor=#d79b00;points=[[0.005,0.63,0],[0.1,0.2,0],[0.9,0.2,0],[0.5,0,0],[0.995,0.63,0],[0.72,0.99,0],[0.5,1,0],[0.28,0.99,0]];shape=mxgraph.kubernetes.icon;prIcon=pod" vertex="1" parent="1">
          <mxGeometry x="472.88" y="1075" width="50" height="48" as="geometry" />
        </mxCell>
        <mxCell id="_x-VhurMgfSDuc2ts5zv-36" value="" style="sketch=0;html=1;dashed=0;whitespace=wrap;fillColor=#ffe6cc;strokeColor=#d79b00;points=[[0.005,0.63,0],[0.1,0.2,0],[0.9,0.2,0],[0.5,0,0],[0.995,0.63,0],[0.72,0.99,0],[0.5,1,0],[0.28,0.99,0]];shape=mxgraph.kubernetes.icon;prIcon=pod" vertex="1" parent="1">
          <mxGeometry x="530" y="1075" width="50" height="48" as="geometry" />
        </mxCell>
        <mxCell id="_x-VhurMgfSDuc2ts5zv-38" value="POD" style="text;html=1;resizable=0;autosize=1;align=center;verticalAlign=middle;points=[];fillColor=none;strokeColor=none;rounded=0;" vertex="1" parent="1">
          <mxGeometry x="121" y="1202" width="40" height="20" as="geometry" />
        </mxCell>
        <mxCell id="_x-VhurMgfSDuc2ts5zv-39" value="POD" style="text;html=1;resizable=0;autosize=1;align=center;verticalAlign=middle;points=[];fillColor=none;strokeColor=none;rounded=0;" vertex="1" parent="1">
          <mxGeometry x="177" y="1202" width="40" height="20" as="geometry" />
        </mxCell>
        <mxCell id="_x-VhurMgfSDuc2ts5zv-40" value="POD" style="text;html=1;resizable=0;autosize=1;align=center;verticalAlign=middle;points=[];fillColor=none;strokeColor=none;rounded=0;" vertex="1" parent="1">
          <mxGeometry x="240" y="1202" width="40" height="20" as="geometry" />
        </mxCell>
        <mxCell id="_x-VhurMgfSDuc2ts5zv-50" value="" style="sketch=0;html=1;dashed=0;whitespace=wrap;fillColor=#ffe6cc;strokeColor=#d79b00;points=[[0.005,0.63,0],[0.1,0.2,0],[0.9,0.2,0],[0.5,0,0],[0.995,0.63,0],[0.72,0.99,0],[0.5,1,0],[0.28,0.99,0]];shape=mxgraph.kubernetes.icon;prIcon=pod" vertex="1" parent="1">
          <mxGeometry x="472.88" y="1188" width="50" height="48" as="geometry" />
        </mxCell>
        <mxCell id="_x-VhurMgfSDuc2ts5zv-51" value="" style="sketch=0;html=1;dashed=0;whitespace=wrap;fillColor=#ffe6cc;strokeColor=#d79b00;points=[[0.005,0.63,0],[0.1,0.2,0],[0.9,0.2,0],[0.5,0,0],[0.995,0.63,0],[0.72,0.99,0],[0.5,1,0],[0.28,0.99,0]];shape=mxgraph.kubernetes.icon;prIcon=pod" vertex="1" parent="1">
          <mxGeometry x="530" y="1188" width="50" height="48" as="geometry" />
        </mxCell>
        <mxCell id="_x-VhurMgfSDuc2ts5zv-59" value="Custom Resources" style="text;html=1;resizable=0;autosize=1;align=center;verticalAlign=middle;points=[];fillColor=none;strokeColor=none;rounded=0;fontStyle=1" vertex="1" parent="1">
          <mxGeometry x="36.8" y="1013.13" width="120" height="20" as="geometry" />
        </mxCell>
        <mxCell id="_x-VhurMgfSDuc2ts5zv-60" value="" style="shape=curlyBracket;whiteSpace=wrap;html=1;rounded=1;strokeColor=#121212;rotation=-90;" vertex="1" parent="1">
          <mxGeometry x="190.5" y="1149.5" width="20" height="167" as="geometry" />
        </mxCell>
        <mxCell id="_x-VhurMgfSDuc2ts5zv-61" value="Statefulset" style="text;html=1;resizable=0;autosize=1;align=center;verticalAlign=middle;points=[];fillColor=none;strokeColor=none;rounded=0;" vertex="1" parent="1">
          <mxGeometry x="168" y="1250" width="70" height="20" as="geometry" />
        </mxCell>
        <mxCell id="_x-VhurMgfSDuc2ts5zv-63" value="&lt;b&gt;Redis Operator&lt;/b&gt;" style="text;html=1;resizable=0;autosize=1;align=center;verticalAlign=middle;points=[];fillColor=none;strokeColor=none;rounded=0;" vertex="1" parent="1">
          <mxGeometry x="38.8" y="873.25" width="100" height="20" as="geometry" />
        </mxCell>
        <mxCell id="_x-VhurMgfSDuc2ts5zv-64" value="POD" style="text;html=1;resizable=0;autosize=1;align=center;verticalAlign=middle;points=[];fillColor=none;strokeColor=none;rounded=0;" vertex="1" parent="1">
          <mxGeometry x="477.88" y="1129.5" width="40" height="20" as="geometry" />
        </mxCell>
        <mxCell id="_x-VhurMgfSDuc2ts5zv-65" value="POD" style="text;html=1;resizable=0;autosize=1;align=center;verticalAlign=middle;points=[];fillColor=none;strokeColor=none;rounded=0;" vertex="1" parent="1">
          <mxGeometry x="537.5" y="1129.5" width="40" height="20" as="geometry" />
        </mxCell>
        <mxCell id="_x-VhurMgfSDuc2ts5zv-66" value="POD" style="text;html=1;resizable=0;autosize=1;align=center;verticalAlign=middle;points=[];fillColor=none;strokeColor=none;rounded=0;" vertex="1" parent="1">
          <mxGeometry x="477.88" y="1240" width="40" height="20" as="geometry" />
        </mxCell>
        <mxCell id="_x-VhurMgfSDuc2ts5zv-67" value="POD" style="text;html=1;resizable=0;autosize=1;align=center;verticalAlign=middle;points=[];fillColor=none;strokeColor=none;rounded=0;" vertex="1" parent="1">
          <mxGeometry x="535.5" y="1240" width="40" height="20" as="geometry" />
        </mxCell>
        <mxCell id="_x-VhurMgfSDuc2ts5zv-52" value="" style="sketch=0;html=1;dashed=0;whitespace=wrap;fillColor=#ffe6cc;strokeColor=#d79b00;points=[[0.005,0.63,0],[0.1,0.2,0],[0.9,0.2,0],[0.5,0,0],[0.995,0.63,0],[0.72,0.99,0],[0.5,1,0],[0.28,0.99,0]];shape=mxgraph.kubernetes.icon;prIcon=pod" vertex="1" parent="1">
          <mxGeometry x="338.56" y="1188" width="50" height="48" as="geometry" />
        </mxCell>
        <mxCell id="_x-VhurMgfSDuc2ts5zv-53" value="" style="sketch=0;html=1;dashed=0;whitespace=wrap;fillColor=#ffe6cc;strokeColor=#d79b00;points=[[0.005,0.63,0],[0.1,0.2,0],[0.9,0.2,0],[0.5,0,0],[0.995,0.63,0],[0.72,0.99,0],[0.5,1,0],[0.28,0.99,0]];shape=mxgraph.kubernetes.icon;prIcon=pod" vertex="1" parent="1">
          <mxGeometry x="400" y="1188" width="50" height="48" as="geometry" />
        </mxCell>
        <mxCell id="_x-VhurMgfSDuc2ts5zv-68" value="POD" style="text;html=1;resizable=0;autosize=1;align=center;verticalAlign=middle;points=[];fillColor=none;strokeColor=none;rounded=0;" vertex="1" parent="1">
          <mxGeometry x="344" y="1237" width="40" height="20" as="geometry" />
        </mxCell>
        <mxCell id="_x-VhurMgfSDuc2ts5zv-69" value="POD" style="text;html=1;resizable=0;autosize=1;align=center;verticalAlign=middle;points=[];fillColor=none;strokeColor=none;rounded=0;" vertex="1" parent="1">
          <mxGeometry x="404.25" y="1237" width="40" height="20" as="geometry" />
        </mxCell>
        <mxCell id="_x-VhurMgfSDuc2ts5zv-71" value="Statefulset-1" style="text;resizable=0;autosize=1;align=center;verticalAlign=middle;points=[];fillColor=none;strokeColor=none;rounded=0;fontSize=9;" vertex="1" parent="1">
          <mxGeometry x="360" y="1250" width="80" height="20" as="geometry" />
        </mxCell>
        <mxCell id="_x-VhurMgfSDuc2ts5zv-74" value="Statefulset-2" style="text;resizable=0;autosize=1;align=center;verticalAlign=middle;points=[];fillColor=none;strokeColor=none;rounded=0;fontSize=9;" vertex="1" parent="1">
          <mxGeometry x="482.5" y="1250" width="80" height="20" as="geometry" />
        </mxCell>
      </root>
    </mxGraphModel>
  </diagram>
</mxfile>
